<svg xmlns="http://www.w3.org/2000/svg" viewBox="0 0 32 32" id="cpp-file">
  <g id="_03._cpp_C_">
    <path d="M25.49,9.93s0,0,0-.06a.4.4,0,0,0-.12-.22l-7-7a.5.5,0,0,0-.22-.13H8A1.5,1.5,0,0,0,6.5,4V28A1.49,1.49,0,0,0,8,29.5H24A1.5,1.5,0,0,0,25.5,28V10S25.49,10,25.49,9.93Zm-1.7-.43H18.5V4.21ZM8,3.5h9.5V10a.5.5,0,0,0,.5.5h6.5v9H7.5V4A.5.5,0,0,1,8,3.5Zm16,25H8a.48.48,0,0,1-.5-.5V20.47h17V28A.5.5,0,0,1,24,28.5Z"></path>
    <path d="M11.5 23h1a.5.5 0 0 0 0-1h-1a2.5 2.5 0 0 0 0 5h1a.5.5 0 0 0 0-1h-1a1.5 1.5 0 0 1 0-3ZM16.5 22h-2a.5.5 0 0 0-.5.5v4a.5.5 0 0 0 1 0V25h1.5a1.5 1.5 0 0 0 0-3Zm0 2H15V23h1.5a.5.5 0 0 1 0 1ZM21.5 22h-2a.5.5 0 0 0-.5.5v4a.5.5 0 0 0 1 0V25h1.5a1.5 1.5 0 0 0 0-3Zm0 2H20V23h1.5a.5.5 0 0 1 0 1Z"></path>
  </g>
</svg>
