<svg xmlns="http://www.w3.org/2000/svg" enable-background="new 0 0 24 24" viewBox="0 0 24 24" id="programming">
  <g id="Layer_2">
    <path d="M6,20h12c2.2056,0,4-1.7944,4-4V8c0-2.2056-1.7944-4-4-4H6C3.7944,4,2,5.7944,2,8v8C2,18.2056,3.7944,20,6,20z M6,6h12
			c1.103,0,2,0.897,2,2H4C4,6.897,4.897,6,6,6z M4,10h16v6c0,1.103-0.897,2-2,2H6c-1.103,0-2-0.897-2-2V10z"></path>
    <path d="M9.293 16.707C9.4883 16.9023 9.7441 17 10 17s.5117-.0977.707-.293c.3906-.3906.3906-1.0234 0-1.4141L9.4141 14l1.293-1.293c.3906-.3906.3906-1.0234 0-1.4141s-1.0234-.3906-1.4141 0l-2 2c-.3906.3906-.3906 1.0234 0 1.4141L9.293 16.707zM13.293 16.707C13.4883 16.9023 13.7441 17 14 17s.5117-.0977.707-.293l2-2c.3906-.3906.3906-1.0234 0-1.4141l-2-2c-.3906-.3906-1.0234-.3906-1.4141 0s-.3906 1.0234 0 1.4141L14.5859 14l-1.293 1.293C12.9023 15.6836 12.9023 16.3164 13.293 16.707z"></path>
  </g>
</svg>
