<svg xmlns="http://www.w3.org/2000/svg" viewBox="0 0 100 100" id="edit-music">
  <path d="M93 14h-8v-3c0-1.1-.9-2-2-2H55V7c0-1.1-.9-2-2-2H17c-1.1 0-2 .9-2 2v7H7c-1.1 0-2 .9-2 2v64c0 1.1.9 2 2 2h32v9h-8c-1.1 0-2 .9-2 2s.9 2 2 2h38c1.1 0 2-.9 2-2s-.9-2-2-2h-8v-9h32c1.1 0 2-.9 2-2V16c0-1.1-.9-2-2-2zm-38-1h26v20H55V13zM19 9h32v28H33c-.5 0-1 .2-1.3.5l-6.7 6V39c0-1.1-.9-2-2-2h-4V9zm38 82H43v-9h14v9zm34-13H9V18h6v21c0 1.1.9 2 2 2h4v7c0 .8.5 1.5 1.2 1.8.3.1.5.2.8.2.5 0 1-.2 1.3-.5l9.4-8.5H53c1.1 0 2-.9 2-2v-2h28c1.1 0 2-.9 2-2V18h6v60zM32 33c3.3 0 6-2.7 6-6v-9.5c1.2.7 2 2 2 3.5 0 .5.2 1 .6 1.4.4.4.9.6 1.4.6 1.1 0 2-.9 2-2 0-4.4-3.6-8-8-8-1.1 0-2 .9-2 2v6.3c-.6-.2-1.3-.3-2-.3-3.3 0-6 2.7-6 6s2.7 6 6 6zm0-8c1.1 0 2 .9 2 2s-.9 2-2 2-2-.9-2-2 .9-2 2-2zm32.4.6c.4.4.6.9.6 1.4 0 .5-.2 1-.6 1.4-.4.4-.9.6-1.4.6h-.4c-.1 0-.2-.1-.4-.1-.1 0-.2-.1-.3-.2-.1-.1-.2-.1-.3-.2-.1-.1-.2-.2-.2-.3-.1-.1-.1-.2-.2-.3-.1-.1-.1-.2-.1-.4v-.4c0-.5.2-1 .6-1.4.1-.1.2-.2.3-.2s.2-.1.3-.2c.1 0 .2-.1.4-.1.6-.3 1.3-.1 1.7.4zm10.6 1v.4c0 .5-.2 1-.6 1.4-.1.1-.2.2-.3.2-.1.1-.2.1-.3.2-.1 0-.2.1-.4.1h-.8c-.1 0-.3-.1-.4-.1s-.2-.1-.3-.2c-.1-.1-.2-.1-.3-.2-.4-.4-.6-.9-.6-1.4v-.4c0-.1.1-.2.1-.4 0-.1.1-.2.2-.3.1-.1.1-.2.2-.3.1-.1.2-.2.3-.2s.2-.1.3-.2c.1 0 .2-.1.4-.1h.8c.1 0 .2.1.4.1.1.1.2.1.3.2s.2.2.3.2c.1.1.2.2.2.3.1.1.1.2.2.3.2.2.2.3.3.4zM82 54H18c-1.1 0-2 .9-2 2v16c0 1.1.9 2 2 2h64c1.1 0 2-.9 2-2V56c0-1.1-.9-2-2-2zM32 70H20V58h4v4c0 1.1.9 2 2 2s2-.9 2-2v-4h4v12zm16 0H36V58h4v4c0 1.1.9 2 2 2s2-.9 2-2v-4h4v12zm16 0H52V58h4v4c0 1.1.9 2 2 2s2-.9 2-2v-4h4v12zm16 0H68V58h4v4c0 1.1.9 2 2 2s2-.9 2-2v-4h4v12z"></path>
</svg>
